<svg width="91" height="104" viewBox="0 0 91 104" fill="none" xmlns="http://www.w3.org/2000/svg">
<path d="M30.0115 58.4008H21.9003C20.562 58.4008 19.4669 57.3058 19.4669 55.9674V47.8562C19.4669 46.5179 20.562 45.4229 21.9003 45.4229H30.0115C31.3499 45.4229 32.4449 46.5179 32.4449 47.8562V55.9674C32.4449 57.3058 31.3499 58.4008 30.0115 58.4008ZM51.9118 55.9674V47.8562C51.9118 46.5179 50.8168 45.4229 49.4785 45.4229H41.3672C40.0289 45.4229 38.9339 46.5179 38.9339 47.8562V55.9674C38.9339 57.3058 40.0289 58.4008 41.3672 58.4008H49.4785C50.8168 58.4008 51.9118 57.3058 51.9118 55.9674ZM71.3788 55.9674V47.8562C71.3788 46.5179 70.2838 45.4229 68.9454 45.4229H60.8342C59.4958 45.4229 58.4008 46.5179 58.4008 47.8562V55.9674C58.4008 57.3058 59.4958 58.4008 60.8342 58.4008H68.9454C70.2838 58.4008 71.3788 57.3058 71.3788 55.9674ZM51.9118 75.4344V67.3232C51.9118 65.9848 50.8168 64.8898 49.4785 64.8898H41.3672C40.0289 64.8898 38.9339 65.9848 38.9339 67.3232V75.4344C38.9339 76.7727 40.0289 77.8678 41.3672 77.8678H49.4785C50.8168 77.8678 51.9118 76.7727 51.9118 75.4344ZM32.4449 75.4344V67.3232C32.4449 65.9848 31.3499 64.8898 30.0115 64.8898H21.9003C20.562 64.8898 19.4669 65.9848 19.4669 67.3232V75.4344C19.4669 76.7727 20.562 77.8678 21.9003 77.8678H30.0115C31.3499 77.8678 32.4449 76.7727 32.4449 75.4344ZM71.3788 75.4344V67.3232C71.3788 65.9848 70.2838 64.8898 68.9454 64.8898H60.8342C59.4958 64.8898 58.4008 65.9848 58.4008 67.3232V75.4344C58.4008 76.7727 59.4958 77.8678 60.8342 77.8678H68.9454C70.2838 77.8678 71.3788 76.7727 71.3788 75.4344ZM90.8457 22.7114V94.0902C90.8457 99.4639 86.4859 103.824 81.1122 103.824H9.73347C4.35978 103.824 0 99.4639 0 94.0902V22.7114C0 17.3377 4.35978 12.978 9.73347 12.978H19.4669V2.43337C19.4669 1.09502 20.562 0 21.9003 0H30.0115C31.3499 0 32.4449 1.09502 32.4449 2.43337V12.978H58.4008V2.43337C58.4008 1.09502 59.4958 0 60.8342 0H68.9454C70.2838 0 71.3788 1.09502 71.3788 2.43337V12.978H81.1122C86.4859 12.978 90.8457 17.3377 90.8457 22.7114ZM81.1122 92.8735V32.4449H9.73347V92.8735C9.73347 93.5427 10.281 94.0902 10.9502 94.0902H79.8956C80.5647 94.0902 81.1122 93.5427 81.1122 92.8735Z" fill="white"/>
</svg>
