<svg width="140" height="94" viewBox="0 0 140 94" fill="none" xmlns="http://www.w3.org/2000/svg">
<path d="M103.536 64.6236H36.0434C35.2356 64.6236 34.5746 65.2845 34.5746 66.0924L34.5562 74.9053C34.5562 75.7132 35.2172 76.3741 36.025 76.3741H103.536C104.344 76.3741 105.005 75.7132 105.005 74.9053V66.0924C105.005 65.2845 104.344 64.6236 103.536 64.6236ZM103.536 82.2494H35.9883C35.1805 82.2494 34.5195 82.9104 34.5195 83.7182L34.5011 92.5312C34.5011 93.339 35.1621 94 35.97 94H103.536C104.344 94 105.005 93.339 105.005 92.5312V83.7182C105.005 82.9104 104.344 82.2494 103.536 82.2494ZM103.536 46.9977H36.0801C35.2723 46.9977 34.6113 47.6587 34.6113 48.4665L34.5929 57.2795C34.5929 58.0873 35.2539 58.7483 36.0618 58.7483H103.536C104.344 58.7483 105.005 58.0873 105.005 57.2795V48.4665C105.005 47.6587 104.344 46.9977 103.536 46.9977ZM123.089 21.4769L73.1311 0.674752C72.0573 0.229293 70.9062 0 69.7437 0C68.5811 0 67.43 0.229293 66.3562 0.674752L16.4163 21.4769C13.1482 22.854 11 26.0486 11 29.6105V92.5312C11 93.339 11.661 94 12.4688 94H27.157C27.9649 94 28.6259 93.339 28.6259 92.5312V46.9977C28.6259 43.7663 31.3065 41.1224 34.6113 41.1224H104.894C108.199 41.1224 110.88 43.7663 110.88 46.9977V92.5312C110.88 93.339 111.541 94 112.349 94H127.037C127.845 94 128.506 93.339 128.506 92.5312V29.6105C128.506 26.0486 126.358 22.854 123.089 21.4769Z" fill="white"/>
</svg>
