<svg width="95" height="95" viewBox="0 0 95 95" fill="none" xmlns="http://www.w3.org/2000/svg">
<path d="M73.6237 5.88989C67.0968 5.90068 60.7252 7.881 55.3421 11.5718C49.959 15.2627 45.8151 20.4922 43.4524 26.5764C41.5596 23.8306 39.0284 21.5855 36.0763 20.0341C33.1241 18.4827 29.8395 17.6713 26.5045 17.6697H17.6697V26.5045C17.6758 31.97 19.8496 37.2099 23.7143 41.0745C27.579 44.9392 32.8188 47.1131 38.2843 47.1191H41.2292V73.7688C34.4649 74.4302 28.1426 77.4288 23.3505 82.2485L27.5146 86.413C29.9781 83.9499 32.9572 82.0637 36.2373 80.8904C39.5174 79.7171 43.0169 79.2857 46.4838 79.6275C49.9506 79.9693 53.2985 81.0756 56.2864 82.8668C59.2742 84.6581 61.8277 87.0896 63.7628 89.9864L68.6561 86.7092C66.2419 83.1015 63.0585 80.0733 59.3347 77.8423C55.6109 75.6114 51.4391 74.233 47.1191 73.8062V47.1191H50.0641C58.6526 47.1094 66.8866 43.6933 72.9596 37.6203C79.0327 31.5473 82.4488 23.3133 82.4585 14.7247V5.88989H73.6237ZM38.2843 41.2292C34.3804 41.2248 30.6377 39.672 27.8773 36.9116C25.1168 34.1511 23.564 30.4084 23.5596 26.5045V23.5596H26.5045C30.4085 23.5638 34.1513 25.1165 36.9118 27.877C39.6723 30.6375 41.225 34.3804 41.2292 38.2843V41.2292H38.2843ZM76.5686 14.7247C76.5608 21.7518 73.7659 28.4888 68.797 33.4576C63.8281 38.4265 57.0911 41.2215 50.0641 41.2292H47.1191V38.2843C47.1269 31.2573 49.9219 24.5203 54.8907 19.5514C59.8596 14.5825 66.5966 11.7876 73.6237 11.7798H76.5686V14.7247Z" fill="white"/>
</svg>
